<svg version="1.1" id="Layer_1" xmlns="http://www.w3.org/2000/svg" xmlns:xlink="http://www.w3.org/1999/xlink" x="0px" y="0px"
	 width="100%" viewBox="0 0 512 512" enable-background="new 0 0 512 512" xml:space="preserve">
<path fill="#000000" opacity="1.000000" stroke="none" 
	d="
M513.000000,190.000000 
	C513.000000,297.973755 513.000000,405.447510 513.000000,512.960632 
	C342.401245,512.960632 171.802460,512.960632 1.101843,512.960632 
	C1.101843,342.442932 1.101843,171.885803 1.101843,1.164328 
	C171.666534,1.164328 342.333252,1.164328 513.000000,1.164328 
	C513.000000,63.864170 513.000000,126.682083 513.000000,190.000000 
M157.293457,476.762054 
	C162.826385,478.858765 168.359299,480.955505 174.263931,483.722687 
	C175.179382,483.990662 176.093643,484.262787 177.010468,484.525970 
	C184.339218,486.629395 191.668442,488.731171 199.787567,490.998352 
	C209.511673,492.703308 219.235779,494.408264 229.429169,496.828461 
	C240.618591,497.163513 251.808014,497.498596 263.908875,497.979401 
	C273.278534,497.265289 282.648163,496.551178 292.539764,495.900757 
	C292.727875,495.617798 292.915985,495.334839 293.029022,495.023926 
	C293.029022,495.023926 293.063568,495.096222 293.922913,495.016113 
	C306.614258,491.955139 319.305603,488.894165 332.763336,485.962524 
	C343.960144,481.287537 355.358856,477.038696 366.311676,471.848816 
	C388.999542,461.098358 408.865173,446.122070 426.697418,428.627350 
	C442.538910,413.085724 456.094391,395.559296 466.851929,376.093994 
	C474.610992,362.054352 481.868164,347.711060 486.173584,331.310120 
	C489.157715,318.556274 492.141876,305.802429 495.830017,292.590759 
	C496.497803,283.059540 497.165588,273.528351 497.974518,263.069641 
	C497.983124,256.800629 498.274261,250.515350 497.915039,244.267487 
	C497.601959,238.822281 496.555176,233.419266 495.973480,227.120316 
	C493.687500,215.733246 491.401489,204.346161 489.011139,192.150391 
	C485.618469,182.432724 482.225800,172.715057 478.963654,162.261948 
	C473.655762,152.135269 468.347870,142.008591 462.755676,131.239716 
	C455.874084,121.811394 448.992493,112.383080 441.831024,102.320854 
	C437.673035,97.496452 433.829926,92.348541 429.283295,87.923492 
	C422.472382,81.294685 415.167236,75.173683 407.783752,68.206215 
	C405.534058,66.649979 403.356567,64.974869 401.022552,63.557499 
	C389.220215,56.390408 377.377197,49.290348 365.090240,41.662655 
	C359.425415,38.965618 353.915955,35.851307 348.058960,33.670387 
	C339.501953,30.484081 330.695435,27.967831 321.288391,24.823301 
	C318.386230,23.965052 315.535339,22.803431 312.572723,22.302877 
	C301.734039,20.471586 290.858124,18.860460 279.128510,17.020582 
	C267.084900,16.735931 255.041306,16.451281 242.141434,16.019661 
	C239.070877,16.346972 235.982376,16.557079 232.933182,17.023880 
	C224.279633,18.348648 215.642120,19.778299 206.202225,21.030722 
	C205.142410,21.354364 204.082520,21.677811 203.022781,22.001675 
	C193.334549,24.962481 183.646347,27.923357 173.184097,30.990957 
	C160.950592,36.666580 148.203644,41.466717 136.624069,48.257416 
	C124.382225,55.436493 112.760902,63.913383 101.780540,72.933571 
	C91.665016,81.243317 81.911057,90.318817 73.547737,100.349312 
	C64.164032,111.603592 55.733307,123.849731 48.350082,136.516571 
	C41.606915,148.085327 36.817245,160.792740 30.833664,173.692734 
	C27.611303,184.461349 24.388943,195.229965 21.013659,206.828537 
	C19.398026,218.884872 17.782393,230.941223 16.014174,243.924164 
	C16.398264,256.614868 16.782356,269.305573 17.014635,282.836670 
	C17.676167,287.308563 18.075621,291.838684 19.052881,296.240479 
	C21.197601,305.900848 23.634815,315.496246 25.991552,325.906250 
	C28.736475,333.808655 31.234329,341.808899 34.311821,349.579590 
	C36.418861,354.899902 39.333168,359.900543 41.990334,365.781586 
	C44.648071,370.771332 46.939510,376.003235 50.043152,380.698212 
	C55.739239,389.314850 61.914074,397.615021 67.988358,406.750153 
	C78.312622,417.540192 88.636887,428.330231 99.224342,439.750244 
	C102.533890,442.385773 105.708107,445.217255 109.181221,447.615936 
	C116.355743,452.571106 123.689552,457.295654 131.233810,462.754578 
	C139.809738,467.210846 148.385651,471.667145 157.293457,476.762054 
z"/>
<path fill="#82F0E5" opacity="1.000000" stroke="none" 
	d="
M17.166443,281.996277 
	C16.782356,269.305573 16.398264,256.614868 16.427965,243.400787 
	C18.618979,241.693604 20.654795,240.768723 22.136318,239.288910 
	C94.876259,166.633759 167.574646,93.937004 240.217468,21.184774 
	C241.516510,19.883793 242.087158,17.855530 242.997681,16.166628 
	C255.041306,16.451281 267.084900,16.735931 279.499847,17.421589 
	C278.618073,19.344433 277.481415,20.982521 276.094818,22.371061 
	C244.627502,53.882820 213.113861,85.348373 181.697296,116.910591 
	C180.063507,118.551971 179.213882,120.973900 177.704346,123.230698 
	C159.664719,130.038971 144.706360,140.510818 134.337387,156.486725 
	C129.508270,163.927170 126.178452,172.340744 121.963890,180.073044 
	C120.294350,180.600128 118.527870,181.064255 117.409508,182.178741 
	C85.837326,213.641449 54.333336,245.172592 22.805815,276.680145 
	C20.979307,278.505493 19.048635,280.226624 17.166443,281.996277 
z"/>
<path fill="#41D3C4" opacity="1.000000" stroke="none" 
	d="
M262.997437,497.833649 
	C251.808014,497.498596 240.618591,497.163513 229.252197,496.114563 
	C230.684036,493.133270 232.009247,490.583435 233.944077,488.640717 
	C263.745270,458.717926 293.642212,428.890442 323.440887,398.965118 
	C324.979004,397.420502 325.835144,395.196808 327.391296,393.165009 
	C336.322662,389.527985 345.402191,386.928284 353.318573,382.327362 
	C375.047363,369.698914 387.507660,349.977783 394.058228,325.968872 
	C396.456055,324.648804 398.771454,323.632233 400.442169,321.968323 
	C430.585022,291.948181 460.640686,261.840485 490.759979,231.796661 
	C492.240723,230.319626 494.132355,229.254532 495.832642,227.997620 
	C496.555176,233.419266 497.601959,238.822281 497.915039,244.267487 
	C498.274261,250.515350 497.983124,256.800629 497.534790,263.536743 
	C495.143127,265.089600 492.813873,265.797424 491.293427,267.315338 
	C416.566895,341.918091 341.901703,416.582275 267.293915,491.303772 
	C265.490662,493.109863 264.413330,495.640778 262.997437,497.833649 
z"/>
<path fill="#86F3E7" opacity="1.000000" stroke="none" 
	d="
M242.569550,16.093143 
	C242.087158,17.855530 241.516510,19.883793 240.217468,21.184774 
	C167.574646,93.937004 94.876259,166.633759 22.136318,239.288910 
	C20.654795,240.768723 18.618979,241.693604 16.504257,242.937469 
	C17.782393,230.941223 19.398026,218.884872 21.459425,206.411240 
	C23.737854,205.028091 25.947674,204.440201 27.348898,203.041977 
	C86.368233,144.149231 145.322845,85.191582 204.222672,26.179296 
	C205.519836,24.879656 206.089355,22.853765 206.998306,21.166653 
	C215.642120,19.778299 224.279633,18.348648 232.933182,17.023880 
	C235.982376,16.557079 239.070877,16.346972 242.569550,16.093143 
z"/>
<path fill="#3DD1C2" opacity="1.000000" stroke="none" 
	d="
M263.453156,497.906525 
	C264.413330,495.640778 265.490662,493.109863 267.293915,491.303772 
	C341.901703,416.582275 416.566895,341.918091 491.293427,267.315338 
	C492.813873,265.797424 495.143127,265.089600 497.464233,264.000488 
	C497.165588,273.528351 496.497803,283.059540 495.129395,292.858032 
	C492.992859,294.209900 491.403778,295.141235 490.142944,296.401062 
	C425.497162,360.997040 360.874298,425.615936 296.293060,490.276428 
	C294.952148,491.618958 294.128510,493.478088 293.063568,495.096222 
	C293.063568,495.096222 293.029022,495.023926 292.857056,495.126221 
	C292.417999,495.382385 292.195587,495.585205 292.017822,495.837036 
	C282.648163,496.551178 273.278534,497.265289 263.453156,497.906525 
z"/>
<path fill="#3ACFC0" opacity="1.000000" stroke="none" 
	d="
M293.493225,495.056152 
	C294.128510,493.478088 294.952148,491.618958 296.293060,490.276428 
	C360.874298,425.615936 425.497162,360.997040 490.142944,296.401062 
	C491.403778,295.141235 492.992859,294.209900 494.777405,293.086914 
	C492.141876,305.802429 489.157715,318.556274 485.666260,331.715149 
	C483.383911,333.302460 481.351349,334.226715 479.871033,335.704285 
	C431.457489,384.027374 383.087982,432.394562 334.777618,480.820770 
	C333.479889,482.121613 332.907562,484.146149 331.996948,485.833191 
	C319.305603,488.894165 306.614258,491.955139 293.493225,495.056152 
z"/>
<path fill="#74EADE" opacity="1.000000" stroke="none" 
	d="
M321.995270,25.165970 
	C330.695435,27.967831 339.501953,30.484081 348.058960,33.670387 
	C353.915955,35.851307 359.425415,38.965618 365.119446,42.261147 
	C363.825226,44.346992 362.572235,45.904709 361.167786,47.311157 
	C339.654816,68.854477 318.086426,90.342758 296.661865,111.973534 
	C294.954010,113.697792 294.208588,116.375259 292.553833,118.701965 
	C272.399353,118.734993 252.706970,118.675812 233.031616,118.271942 
	C234.541275,115.609352 235.679092,112.938690 237.580002,111.026688 
	C264.403351,84.046593 291.341064,57.180222 318.203827,30.239204 
	C319.679413,28.759295 320.740997,26.866549 321.995270,25.165970 
z"/>
<path fill="#7CEEE1" opacity="1.000000" stroke="none" 
	d="
M17.090536,282.416473 
	C19.048635,280.226624 20.979307,278.505493 22.805815,276.680145 
	C54.333336,245.172592 85.837326,213.641449 117.409508,182.178741 
	C118.527870,181.064255 120.294350,180.600128 121.939194,180.444702 
	C121.049026,189.049408 119.518471,197.014130 119.026459,205.042465 
	C118.436340,214.671707 118.731827,224.355225 118.303589,234.030823 
	C116.244820,235.261673 114.309425,236.259415 112.839821,237.724380 
	C85.033157,265.443756 57.277699,293.214539 29.530527,320.993530 
	C28.247458,322.278076 27.141211,323.739288 25.952604,325.118195 
	C23.634815,315.496246 21.197601,305.900848 19.052881,296.240479 
	C18.075621,291.838684 17.676167,287.308563 17.090536,282.416473 
z"/>
<path fill="#74EADE" opacity="1.000000" stroke="none" 
	d="
M25.972076,325.512207 
	C27.141211,323.739288 28.247458,322.278076 29.530527,320.993530 
	C57.277699,293.214539 85.033157,265.443756 112.839821,237.724380 
	C114.309425,236.259415 116.244820,235.261673 118.380104,234.493317 
	C118.744392,253.965652 118.691933,272.991089 118.299576,292.032410 
	C116.239723,293.265656 114.304451,294.266724 112.832146,295.732727 
	C90.879822,317.591309 69.003754,339.526489 47.049530,361.383148 
	C45.575043,362.851044 43.618778,363.835022 41.886589,365.044067 
	C39.333168,359.900543 36.418861,354.899902 34.311821,349.579590 
	C31.234329,341.808899 28.736475,333.808655 25.972076,325.512207 
z"/>
<path fill="#7CEEE1" opacity="1.000000" stroke="none" 
	d="
M321.641846,24.994637 
	C320.740997,26.866549 319.679413,28.759295 318.203827,30.239204 
	C291.341064,57.180222 264.403351,84.046593 237.580002,111.026688 
	C235.679092,112.938690 234.541275,115.609352 232.569214,118.362778 
	C230.106339,118.828880 228.122986,118.879547 226.139450,118.886856 
	C209.978546,118.946419 193.715500,117.811371 177.999191,123.032425 
	C179.213882,120.973900 180.063507,118.551971 181.697296,116.910591 
	C213.113861,85.348373 244.627502,53.882820 276.094818,22.371061 
	C277.481415,20.982521 278.618073,19.344433 279.933716,17.494503 
	C290.858124,18.860460 301.734039,20.471586 312.572723,22.302877 
	C315.535339,22.803431 318.386230,23.965052 321.641846,24.994637 
z"/>
<path fill="#6BE6D9" opacity="1.000000" stroke="none" 
	d="
M293.015900,118.609756 
	C294.208588,116.375259 294.954010,113.697792 296.661865,111.973534 
	C318.086426,90.342758 339.654816,68.854477 361.167786,47.311157 
	C362.572235,45.904709 363.825226,44.346992 365.348541,42.513214 
	C377.377197,49.290348 389.220215,56.390408 401.022552,63.557499 
	C403.356567,64.974869 405.534058,66.649979 407.900909,68.893913 
	C406.767120,71.465965 405.786285,73.618217 404.223694,75.193428 
	C387.684662,91.866142 371.037445,108.431541 354.475739,125.081871 
	C353.114960,126.449944 352.161926,128.223618 350.682495,129.731201 
	C340.827911,126.407761 331.512787,122.125465 321.734253,120.214745 
	C312.412842,118.393341 302.608124,119.045197 293.015900,118.609756 
z"/>
<path fill="#6BE6D9" opacity="1.000000" stroke="none" 
	d="
M41.938461,365.412842 
	C43.618778,363.835022 45.575043,362.851044 47.049530,361.383148 
	C69.003754,339.526489 90.879822,317.591309 112.832146,295.732727 
	C114.304451,294.266724 116.239723,293.265656 118.375572,292.494812 
	C119.042274,301.759644 118.321754,310.744904 119.801277,319.352020 
	C121.473717,329.081421 125.122124,338.471191 127.568161,348.063904 
	C125.092896,349.636719 122.694283,350.887970 120.869873,352.713165 
	C103.154709,370.436188 85.535736,388.255371 67.889328,406.047119 
	C61.914074,397.615021 55.739239,389.314850 50.043152,380.698212 
	C46.939510,376.003235 44.648071,370.771332 41.938461,365.412842 
z"/>
<path fill="#35CDBE" opacity="1.000000" stroke="none" 
	d="
M332.380157,485.897858 
	C332.907562,484.146149 333.479889,482.121613 334.777618,480.820770 
	C383.087982,432.394562 431.457489,384.027374 479.871033,335.704285 
	C481.351349,334.226715 483.383911,333.302460 485.496216,332.058807 
	C481.868164,347.711060 474.610992,362.054352 466.851929,376.093994 
	C456.094391,395.559296 442.538910,413.085724 426.697418,428.627350 
	C408.865173,446.122070 388.999542,461.098358 366.311676,471.848816 
	C355.358856,477.038696 343.960144,481.287537 332.380157,485.897858 
z"/>
<path fill="#47D6C7" opacity="1.000000" stroke="none" 
	d="
M495.903076,227.558960 
	C494.132355,229.254532 492.240723,230.319626 490.759979,231.796661 
	C460.640686,261.840485 430.585022,291.948181 400.442169,321.968323 
	C398.771454,323.632233 396.456055,324.648804 394.074524,325.527344 
	C394.186768,318.665375 394.861298,312.249847 395.093811,305.818359 
	C395.380493,297.888855 395.299225,289.946106 395.733337,282.005524 
	C398.141113,280.753296 400.536957,279.850952 402.192444,278.204285 
	C429.370544,251.171463 456.442047,224.031479 483.594574,196.972824 
	C485.186859,195.386047 487.263977,194.285767 489.115479,192.959076 
	C491.401489,204.346161 493.687500,215.733246 495.903076,227.558960 
z"/>
<path fill="#8AF4E9" opacity="1.000000" stroke="none" 
	d="
M206.600266,21.098686 
	C206.089355,22.853765 205.519836,24.879656 204.222672,26.179296 
	C145.322845,85.191582 86.368233,144.149231 27.348898,203.041977 
	C25.947674,204.440201 23.737854,205.028091 21.535887,205.996262 
	C24.388943,195.229965 27.611303,184.461349 31.332308,173.280777 
	C34.093193,171.206604 36.614803,169.804352 38.579575,167.844009 
	C82.675270,123.847717 126.717102,79.797409 170.720993,35.709270 
	C172.063660,34.364037 172.890701,32.504154 173.958130,30.884211 
	C183.646347,27.923357 193.334549,24.962481 203.022781,22.001675 
	C204.082520,21.677811 205.142410,21.354364 206.600266,21.098686 
z"/>
<path fill="#61E1D4" opacity="1.000000" stroke="none" 
	d="
M351.019440,129.808823 
	C352.161926,128.223618 353.114960,126.449944 354.475739,125.081871 
	C371.037445,108.431541 387.684662,91.866142 404.223694,75.193428 
	C405.786285,73.618217 406.767120,71.465965 408.045166,69.209160 
	C415.167236,75.173683 422.472382,81.294685 429.283295,87.923492 
	C433.829926,92.348541 437.673035,97.496452 441.671570,102.798561 
	C422.906921,121.790794 404.290527,140.294159 385.731262,158.854614 
	C384.851929,159.733963 384.479340,161.120010 383.605103,162.049652 
	C375.312225,148.383987 364.358124,137.892960 351.019440,129.808823 
z"/>
<path fill="#62E2D4" opacity="1.000000" stroke="none" 
	d="
M67.938843,406.398621 
	C85.535736,388.255371 103.154709,370.436188 120.869873,352.713165 
	C122.694283,350.887970 125.092896,349.636719 127.742752,348.367798 
	C135.692383,361.396454 145.419601,372.102997 157.021820,380.972839 
	C155.092117,382.288208 153.304153,383.261292 151.918854,384.639252 
	C135.198822,401.270935 118.521576,417.945801 101.896400,434.672241 
	C100.668854,435.907288 99.928169,437.626282 98.961143,439.120270 
	C88.636887,428.330231 78.312622,417.540192 67.938843,406.398621 
z"/>
<path fill="#4DD8CA" opacity="1.000000" stroke="none" 
	d="
M489.063293,192.554733 
	C487.263977,194.285767 485.186859,195.386047 483.594574,196.972824 
	C456.442047,224.031479 429.370544,251.171463 402.192444,278.204285 
	C400.536957,279.850952 398.141113,280.753296 395.645996,281.543488 
	C395.260529,268.059296 395.318817,255.033585 395.716339,241.990051 
	C397.768646,240.749847 399.692444,239.738937 401.163361,238.273468 
	C425.167877,214.357910 449.093872,190.363464 473.125122,166.474899 
	C474.661682,164.947433 476.913879,164.139862 478.833130,162.997375 
	C482.225800,172.715057 485.618469,182.432724 489.063293,192.554733 
z"/>
<path fill="#47D6C7" opacity="1.000000" stroke="none" 
	d="
M327.008789,393.289307 
	C325.835144,395.196808 324.979004,397.420502 323.440887,398.965118 
	C293.642212,428.890442 263.745270,458.717926 233.944077,488.640717 
	C232.009247,490.583435 230.684036,493.133270 229.017563,495.756958 
	C219.235779,494.408264 209.511673,492.703308 199.407578,490.563965 
	C200.326431,488.278290 201.386810,486.189423 202.959549,484.611084 
	C230.402344,457.070160 257.935577,429.619293 285.333588,402.034027 
	C287.045288,400.310669 287.804138,397.640900 289.467834,395.327271 
	C302.289154,394.591827 314.648987,393.940552 327.008789,393.289307 
z"/>
<path fill="#5ADED0" opacity="1.000000" stroke="none" 
	d="
M99.092743,439.435242 
	C99.928169,437.626282 100.668854,435.907288 101.896400,434.672241 
	C118.521576,417.945801 135.198822,401.270935 151.918854,384.639252 
	C153.304153,383.261292 155.092117,382.288208 157.344925,381.063538 
	C169.593597,388.573944 182.459671,392.702332 195.944763,395.340088 
	C194.665146,397.214447 193.573929,398.881897 192.196274,400.263855 
	C173.108032,419.411346 153.974503,438.513702 134.874924,457.649872 
	C133.479126,459.048340 132.259415,460.622589 130.957825,462.115082 
	C123.689552,457.295654 116.355743,452.571106 109.181221,447.615936 
	C105.708107,445.217255 102.533890,442.385773 99.092743,439.435242 
z"/>
<path fill="#8DF6EB" opacity="1.000000" stroke="none" 
	d="
M173.571106,30.937584 
	C172.890701,32.504154 172.063660,34.364037 170.720993,35.709270 
	C126.717102,79.797409 82.675270,123.847717 38.579575,167.844009 
	C36.614803,169.804352 34.093193,171.206604 31.498798,172.933563 
	C36.817245,160.792740 41.606915,148.085327 48.350082,136.516571 
	C55.733307,123.849731 64.164032,111.603592 73.547737,100.349312 
	C81.911057,90.318817 91.665016,81.243317 101.780540,72.933571 
	C112.760902,63.913383 124.382225,55.436493 136.624069,48.257416 
	C148.203644,41.466717 160.950592,36.666580 173.571106,30.937584 
z"/>
<path fill="#52DBCD" opacity="1.000000" stroke="none" 
	d="
M478.898376,162.629669 
	C476.913879,164.139862 474.661682,164.947433 473.125122,166.474899 
	C449.093872,190.363464 425.167877,214.357910 401.163361,238.273468 
	C399.692444,239.738937 397.768646,240.749847 395.629395,241.528015 
	C395.195435,227.392273 395.187683,213.700760 395.506744,199.942169 
	C396.768005,199.203552 397.816254,198.646072 398.620239,197.843781 
	C419.254883,177.251740 439.876343,156.646362 460.443878,135.987396 
	C461.558899,134.867432 462.185852,133.261551 463.039978,131.881897 
	C468.347870,142.008591 473.655762,152.135269 478.898376,162.629669 
z"/>
<path fill="#5ADED0" opacity="1.000000" stroke="none" 
	d="
M462.897827,131.560791 
	C462.185852,133.261551 461.558899,134.867432 460.443878,135.987396 
	C439.876343,156.646362 419.254883,177.251740 398.620239,197.843781 
	C397.816254,198.646072 396.768005,199.203552 395.425537,199.523621 
	C393.996216,186.057617 389.849548,173.887146 383.870758,162.270081 
	C384.479340,161.120010 384.851929,159.733963 385.731262,158.854614 
	C404.290527,140.294159 422.906921,121.790794 441.811523,103.115517 
	C448.992493,112.383080 455.874084,121.811394 462.897827,131.560791 
z"/>
<path fill="#4CD8C9" opacity="1.000000" stroke="none" 
	d="
M289.006317,395.411438 
	C287.804138,397.640900 287.045288,400.310669 285.333588,402.034027 
	C257.935577,429.619293 230.402344,457.070160 202.959549,484.611084 
	C201.386810,486.189423 200.326431,488.278290 199.012558,490.481506 
	C191.668442,488.731171 184.339218,486.629395 177.010468,484.525970 
	C176.093643,484.262787 175.179382,483.990662 174.326843,483.153473 
	C175.869888,480.612854 177.138824,478.431091 178.861847,476.701721 
	C204.004395,451.466949 229.226044,426.310913 254.351669,401.059357 
	C255.897781,399.505432 256.800018,397.310883 258.463135,395.327393 
	C268.951721,395.297394 278.979004,395.354401 289.006317,395.411438 
z"/>
<path fill="#52DBCD" opacity="1.000000" stroke="none" 
	d="
M131.095825,462.434814 
	C132.259415,460.622589 133.479126,459.048340 134.874924,457.649872 
	C153.974503,438.513702 173.108032,419.411346 192.196274,400.263855 
	C193.573929,398.881897 194.665146,397.214447 196.412384,395.304077 
	C208.625839,395.090698 220.316452,395.252960 231.989075,395.752075 
	C230.742828,397.797485 229.721283,399.711975 228.255310,401.183807 
	C205.998718,423.529480 183.636398,445.770233 161.461182,468.196014 
	C159.398544,470.282013 158.435303,473.455109 156.961578,476.123413 
	C148.385651,471.667145 139.809738,467.210846 131.095825,462.434814 
z"/>
<path fill="#4DD8CA" opacity="1.000000" stroke="none" 
	d="
M157.127533,476.442749 
	C158.435303,473.455109 159.398544,470.282013 161.461182,468.196014 
	C183.636398,445.770233 205.998718,423.529480 228.255310,401.183807 
	C229.721283,399.711975 230.742828,397.797485 232.450531,395.667603 
	C241.287277,395.302307 249.644562,395.358368 258.001862,395.414398 
	C256.800018,397.310883 255.897781,399.505432 254.351669,401.059357 
	C229.226044,426.310913 204.004395,451.466949 178.861847,476.701721 
	C177.138824,478.431091 175.869888,480.612854 174.140991,482.818237 
	C168.359299,480.955505 162.826385,478.858765 157.127533,476.442749 
z"/>
<path fill="#3ACFC0" opacity="1.000000" stroke="none" 
	d="
M292.278809,495.868896 
	C292.195587,495.585205 292.417999,495.382385 292.894592,495.140198 
	C292.915985,495.334839 292.727875,495.617798 292.278809,495.868896 
z"/>
<path fill="#FFFFFF" opacity="1.000000" stroke="none" 
	d="
M258.463135,395.327393 
	C249.644562,395.358368 241.287277,395.302307 232.468521,395.330750 
	C220.316452,395.252960 208.625839,395.090698 196.467621,394.964478 
	C182.459671,392.702332 169.593597,388.573944 157.673737,380.909363 
	C145.419601,372.102997 135.692383,361.396454 128.085831,348.312561 
	C125.122124,338.471191 121.473717,329.081421 119.801277,319.352020 
	C118.321754,310.744904 119.042274,301.759644 118.715485,292.478912 
	C118.691933,272.991089 118.744392,253.965652 118.720337,234.477722 
	C118.731827,224.355225 118.436340,214.671707 119.026459,205.042465 
	C119.518471,197.014130 121.049026,189.049408 122.144318,180.684860 
	C126.178452,172.340744 129.508270,163.927170 134.337387,156.486725 
	C144.706360,140.510818 159.664719,130.038971 177.704346,123.230705 
	C193.715500,117.811371 209.978546,118.946419 226.139450,118.886856 
	C228.122986,118.879547 230.106339,118.828880 232.552185,118.707474 
	C252.706970,118.675812 272.399353,118.734993 292.553833,118.701965 
	C302.608124,119.045197 312.412842,118.393341 321.734253,120.214745 
	C331.512787,122.125465 340.827911,126.407761 350.682495,129.731201 
	C364.358124,137.892960 375.312225,148.383987 383.605103,162.049652 
	C389.849548,173.887146 393.996216,186.057617 395.098694,199.590698 
	C395.187683,213.700760 395.195435,227.392273 395.290161,241.545837 
	C395.318817,255.033585 395.260529,268.059296 395.289581,281.547028 
	C395.299225,289.946106 395.380493,297.888855 395.093811,305.818359 
	C394.861298,312.249847 394.186768,318.665375 393.692017,325.529510 
	C387.507660,349.977783 375.047363,369.698914 353.318573,382.327362 
	C345.402191,386.928284 336.322662,389.527985 327.391296,393.165039 
	C314.648987,393.940552 302.289154,394.591827 289.467834,395.327271 
	C278.979004,395.354401 268.951721,395.297394 258.463135,395.327393 
M263.938293,261.997894 
	C288.389954,262.025421 312.841644,262.040741 337.293243,262.093781 
	C340.867950,262.101562 343.844391,261.084137 343.869385,257.033051 
	C343.894379,252.985153 340.961090,251.899887 337.363159,251.914291 
	C314.577728,252.005539 291.792145,252.059570 268.077423,251.984100 
	C256.247803,251.973892 244.418076,251.987762 232.588623,251.938721 
	C229.075943,251.924164 226.481842,253.335510 226.463684,256.970978 
	C226.445572,260.599426 229.002808,262.089172 232.529755,262.059204 
	C242.689377,261.972839 252.849380,261.932892 263.938293,261.997894 
M253.012131,323.507996 
	C259.331848,323.556000 265.651550,323.638428 271.971313,323.645721 
	C293.597534,323.670685 315.223724,323.672302 336.849945,323.674988 
	C340.480408,323.675415 343.805786,322.849518 343.893616,318.466217 
	C343.967529,314.778656 341.320099,313.223694 337.913269,313.229401 
	C310.968292,313.274628 284.023438,313.377380 256.152283,313.242004 
	C248.205185,313.215149 240.257324,313.114868 232.311325,313.196411 
	C228.972397,313.230682 226.268921,314.774017 226.306503,318.424103 
	C226.343140,321.984772 228.905502,323.710754 232.307495,323.698639 
	C238.911865,323.675140 245.515457,323.437744 253.012131,323.507996 
M238.008575,200.685043 
	C270.620667,200.729370 303.232819,200.763580 335.844849,200.831406 
	C339.739716,200.839508 343.790405,200.566299 343.839935,195.595596 
	C343.890198,190.552917 339.750610,190.305084 335.907776,190.297134 
	C335.075806,190.295410 334.243835,190.295090 333.411865,190.295486 
	C305.457977,190.308578 277.504089,190.313889 249.550201,190.350830 
	C247.397202,190.353668 245.244492,190.579651 242.198135,190.385452 
	C238.413757,190.394882 234.511993,189.860474 230.894119,190.641388 
	C229.063873,191.036453 226.571365,193.783096 226.532944,195.514328 
	C226.495575,197.198700 228.910507,199.561172 230.804520,200.479645 
	C232.510315,201.306854 234.969406,200.580719 238.008575,200.685043 
M171.867493,322.419464 
	C175.044083,325.599121 178.209778,328.789825 181.401031,331.954681 
	C183.610245,334.145660 186.297562,334.692383 188.535690,332.518524 
	C197.368637,323.939087 206.141922,315.286041 214.561447,306.307800 
	C215.672043,305.123505 215.475784,300.743256 214.350998,299.907562 
	C212.771362,298.733948 209.031982,298.501831 207.495712,299.621857 
	C203.640244,302.432800 200.411667,306.142944 197.102631,309.653595 
	C193.369278,313.614441 189.822784,317.751434 185.042404,323.101898 
	C182.580505,319.808990 181.172775,317.736969 179.569580,315.829224 
	C177.524963,313.396210 174.979370,312.295746 172.153412,314.450256 
	C169.422073,316.532654 169.344528,319.159760 171.867493,322.419464 
M194.630188,189.130524 
	C191.853638,192.396881 189.077087,195.663239 186.300537,198.929596 
	C185.499786,198.959793 184.699036,198.989990 183.898285,199.020172 
	C182.216858,196.748337 180.735519,194.286148 178.802200,192.253952 
	C176.508026,189.842468 173.272476,189.502319 171.543915,192.357635 
	C170.524521,194.041534 170.767807,197.588486 171.931488,199.263824 
	C174.267624,202.627151 177.583008,205.324051 180.569214,208.218643 
	C184.355087,211.888367 186.419312,211.919601 190.285614,208.112503 
	C198.110092,200.407867 205.824936,192.592041 213.606964,184.844147 
	C216.197601,182.264908 217.199661,179.421844 214.333557,176.590668 
	C211.625397,173.915497 208.831192,174.993378 206.433716,177.345200 
	C202.633057,181.073486 198.895462,184.866074 194.630188,189.130524 
M207.126312,252.625336 
	C208.540512,251.213577 209.956299,249.803436 211.368622,248.389801 
	C216.351273,243.402573 217.361923,240.319016 214.366196,238.078552 
	C209.558029,234.482574 206.816971,238.536804 203.934845,241.427856 
	C197.866577,247.514862 191.858200,253.661575 184.483185,261.145691 
	C182.631851,258.457794 181.448303,256.407410 179.942383,254.630188 
	C177.635483,251.907654 174.673798,250.628693 171.732849,253.407806 
	C168.507706,256.455475 170.143021,259.410400 172.761871,262.022766 
	C175.237610,264.492371 177.671417,267.005157 180.184250,269.436310 
	C184.096191,273.221100 186.431503,273.232178 190.366302,269.363953 
	C195.828537,263.994171 201.210052,258.542267 207.126312,252.625336 
z"/>
<path fill="#62E2D4" opacity="1.000000" stroke="none" 
	d="
M243.091644,190.701920 
	C245.244492,190.579651 247.397202,190.353668 249.550201,190.350830 
	C277.504089,190.313889 305.457977,190.308578 333.411865,190.295486 
	C334.243835,190.295090 335.075806,190.295410 335.907776,190.297134 
	C339.750610,190.305084 343.890198,190.552917 343.839935,195.595596 
	C343.790405,200.566299 339.739716,200.839508 335.844849,200.831406 
	C303.232819,200.763580 270.620667,200.729370 237.551636,200.286041 
	C239.093689,196.825317 241.092667,193.763611 243.091644,190.701920 
z"/>
<path fill="#52DBCD" opacity="1.000000" stroke="none" 
	d="
M257.078522,313.462463 
	C284.023438,313.377380 310.968292,313.274628 337.913269,313.229401 
	C341.320099,313.223694 343.967529,314.778656 343.893616,318.466217 
	C343.805786,322.849518 340.480408,323.675415 336.849945,323.674988 
	C315.223724,323.672302 293.597534,323.670685 271.971313,323.645721 
	C265.651550,323.638428 259.331848,323.556000 252.559113,323.085297 
	C253.763565,319.595886 255.421051,316.529175 257.078522,313.462463 
z"/>
<path fill="#5ADED0" opacity="1.000000" stroke="none" 
	d="
M269.006592,252.125870 
	C291.792145,252.059570 314.577728,252.005539 337.363159,251.914291 
	C340.961090,251.899887 343.894379,252.985153 343.869385,257.033051 
	C343.844391,261.084137 340.867950,262.101562 337.293243,262.093781 
	C312.841644,262.040741 288.389954,262.025421 263.485779,261.583282 
	C265.024353,258.154388 267.015472,255.140137 269.006592,252.125870 
z"/>
<path fill="#62E2D4" opacity="1.000000" stroke="none" 
	d="
M171.611755,322.151337 
	C169.344528,319.159760 169.422073,316.532654 172.153412,314.450256 
	C174.979370,312.295746 177.524963,313.396210 179.569580,315.829224 
	C181.172775,317.736969 182.580505,319.808990 185.042404,323.101898 
	C189.822784,317.751434 193.369278,313.614441 197.102631,309.653595 
	C200.411667,306.142944 203.640244,302.432800 207.495712,299.621857 
	C209.031982,298.501831 212.771362,298.733948 214.350998,299.907562 
	C215.475784,300.743256 215.672043,305.123505 214.561447,306.307800 
	C206.141922,315.286041 197.368637,323.939087 188.535690,332.518524 
	C186.297562,334.692383 183.610245,334.145660 181.401031,331.954681 
	C178.209778,328.789825 175.044083,325.599121 171.611755,322.151337 
z"/>
<path fill="#74EADE" opacity="1.000000" stroke="none" 
	d="
M194.880676,188.880981 
	C198.895462,184.866074 202.633057,181.073486 206.433716,177.345200 
	C208.831192,174.993378 211.625397,173.915497 214.333557,176.590668 
	C217.199661,179.421844 216.197601,182.264908 213.606964,184.844147 
	C205.824936,192.592041 198.110092,200.407867 190.285614,208.112503 
	C186.419312,211.919601 184.355087,211.888367 180.569214,208.218643 
	C177.583008,205.324051 174.267624,202.627151 171.931488,199.263824 
	C170.767807,197.588486 170.524521,194.041534 171.543915,192.357635 
	C173.272476,189.502319 176.508026,189.842468 178.802200,192.253952 
	C180.735519,194.286148 182.216858,196.748337 183.898285,199.020172 
	C184.699036,198.989990 185.499786,198.959793 186.300537,198.929596 
	C189.077087,195.663239 191.853638,192.396881 194.880676,188.880981 
z"/>
<path fill="#6BE6D9" opacity="1.000000" stroke="none" 
	d="
M206.876221,252.875427 
	C201.210052,258.542267 195.828537,263.994171 190.366302,269.363953 
	C186.431503,273.232178 184.096191,273.221100 180.184250,269.436310 
	C177.671417,267.005157 175.237610,264.492371 172.761871,262.022766 
	C170.143021,259.410400 168.507706,256.455475 171.732849,253.407806 
	C174.673798,250.628693 177.635483,251.907654 179.942383,254.630188 
	C181.448303,256.407410 182.631851,258.457794 184.483185,261.145691 
	C191.858200,253.661575 197.866577,247.514862 203.934845,241.427856 
	C206.816971,238.536804 209.558029,234.482574 214.366196,238.078552 
	C217.361923,240.319016 216.351273,243.402573 211.368622,248.389801 
	C209.956299,249.803436 208.540512,251.213577 206.876221,252.875427 
z"/>
<path fill="#62E2D4" opacity="1.000000" stroke="none" 
	d="
M268.541992,252.054993 
	C267.015472,255.140137 265.024353,258.154388 263.021240,261.521667 
	C252.849380,261.932892 242.689377,261.972839 232.529755,262.059204 
	C229.002808,262.089172 226.445572,260.599426 226.463684,256.970978 
	C226.481842,253.335510 229.075943,251.924164 232.588623,251.938721 
	C244.418076,251.987762 256.247803,251.973892 268.541992,252.054993 
z"/>
<path fill="#6CE1D5" opacity="1.000000" stroke="none" 
	d="
M256.615417,313.352234 
	C255.421051,316.529175 253.763565,319.595886 252.112732,322.975769 
	C245.515457,323.437744 238.911865,323.675140 232.307495,323.698639 
	C228.905502,323.710754 226.343140,321.984772 226.306503,318.424103 
	C226.268921,314.774017 228.972397,313.230682 232.311325,313.196411 
	C240.257324,313.114868 248.205185,313.215149 256.615417,313.352234 
z"/>
<path fill="#7CEEE1" opacity="1.000000" stroke="none" 
	d="
M242.644882,190.543686 
	C241.092667,193.763611 239.093689,196.825317 237.095490,200.213348 
	C234.969406,200.580719 232.510315,201.306854 230.804520,200.479645 
	C228.910507,199.561172 226.495575,197.198700 226.532944,195.514328 
	C226.571365,193.783096 229.063873,191.036453 230.894119,190.641388 
	C234.511993,189.860474 238.413757,190.394882 242.644882,190.543686 
z"/>
</svg>